# AST/ASF file generated using VICON BodyLanguage
# -----------------------------------------------
:version 1.10
:name VICON
:units
  mass 1.0
  length 0.45
  angle deg
:documentation
   .ast/.asf automatically generated from VICON data using
   VICON BodyBuilder and BodyLanguage model FoxedUp or BRILLIANT.MOD
:root
   order TX TY TZ RX RY RZ
   axis XYZ
   position 0 0 0  
   orientation 0 0 0 
:bonedata
  begin
     id 1 
     name lhipjoint
     direction 0.70531 -0.63749 0.310071 
     length 2.59589 
     axis 0 0 0  XYZ
  end
  begin
     id 2 
     name lfemur
     direction 0.34202 -0.939693 0  
     length 6.19797  
     axis 0 0 20  XYZ
    dof rx ry rz
    limits (-160.0 20.0)
           (-70.0 70.0)
           (-60.0 70.0)
  end
  begin
     id 3 
     name ltibia
     direction 0.34202 -0.939693 0   
     length 7.80054   
     axis 0 0 20   XYZ
    dof rx
    limits (-10.0 170.0)
  end
  begin
     id 4 
     name lfoot
     direction 0.0828572 -0.227648 0.970212   
     length 1.88124   
     axis -90 7.62852e-016 20   XYZ
    dof rx rz
    limits (-45.0 90.0)
           (-70.0 20.0)
  end
  begin
     id 5 
     name ltoes
     direction 1.53544e-011 -4.219e-011 1   
     length 0.948015   
     axis -90 7.62852e-016 20   XYZ
    dof rx
    limits (-90.0 20.0)
  end
  begin
     id 6 
     name rhipjoint
     direction -0.730062 -0.614543 0.29891   
     length 2.69282  
     axis 0 0 0  XYZ 
  end
  begin
     id 7 
     name rfemur
     direction -0.34202 -0.939693 0   
     length 5.86298   
     axis 0 0 -20   XYZ
    dof rx ry rz
    limits (-160.0 20.0)
           (-70.0 70.0)
           (-70.0 60.0)
  end
  begin
     id 8 
     name rtibia
     direction -0.34202 -0.939693 0   
     length 7.72374   
     axis 0 0 -20   XYZ
    dof rx
    limits (-10.0 170.0)
 end
 begin
     id 9 
     name rfoot
     direction -0.0967421 -0.265797 0.959163   
     length 2.02368  
     axis -90 -7.62852e-016 -20   XYZ
    dof rx rz
    limits (-45.0 90.0)
           (-20.0 70.0)
  end
  begin
     id 10 
     name rtoes
     direction -1.53524e-011 -4.21768e-011 1   
     length 1.01373   
     axis -90 -7.62852e-016 -20   XYZ
    dof rx
    limits (-90.0 20.0)
  end
  begin
     id 11 
     name lowerback
     direction 0.00561702 0.992801 -0.119643   
     length 2.02816   
     axis 0 0 0   XYZ
    dof rx ry rz
    limits (-20.0 45.0)
           (-30.0 30.0)
           (-30.0 30.0)
  end
  begin
     id 12 
     name upperback
     direction 0.00155544 0.995735 -0.0922509   
     length 2.02265   
     axis 0 0 0   XYZ
    dof rx ry rz
    limits (-20.0 45.0)
           (-30.0 30.0)
           (-30.0 30.0)
  end
  begin
     id 13 
     name thorax
     direction -0.000937535 0.999317 -0.0369292   
     length 2.04823   
     axis 0 0 0   XYZ
    dof rx ry rz
    limits (-20.0 45.0)
           (-30.0 30.0)
           (-30.0 30.0)
  end
  begin
     id 14 
     name lowerneck
     direction -0.0813151 0.981659 0.172436   
     length 1.8875   
     axis 0 0 0   XYZ
    dof rx ry rz
    limits (-20.0 45.0)
           (-30.0 30.0)
           (-30.0 30.0)
  end
  begin
     id 15 
     name upperneck
     direction 0.119359 0.955672 -0.269157   
     length 1.92801   
     axis 0 0 0   XYZ
    dof rx ry rz
    limits (-20.0 45.0)
           (-30.0 30.0)
           (-30.0 30.0)
  end
  begin
     id 16
     name head
     direction 0.0421007 0.992672 -0.113268  
     length 1.95809  
     axis 0 0 0   XYZ
    dof rx ry rz
    limits (-20.0 45.0)
           (-30.0 30.0)
           (-30.0 30.0)
  end
  begin
     id 17 
     name lclavicle
     direction 0.944093 0.32865 -0.0260136  
     length 3.84992  
     axis 0 0 0   XYZ
    dof ry rz
    limits (-20.0 10.0)
           (0.0 20.0)
  end
  begin
     id 18 
     name lhumerus
     direction 1 -4.48979e-011 -1.27712e-029   
     length 5.53593   
     axis 180 -30 -90   XYZ
    dof rx ry rz
    limits (-60.0 90.0)
           (-90.0 90.0)
           (-90.0 90.0)
  end
  begin
     id 19
     name lradius
     direction 1 -4.48966e-011 1.00051e-028   
     length 3.13345   
     axis 180 -30 -90   XYZ
    dof rx
    limits (-10.0 170.0)
  end
  begin
     id 20
     name lwrist
     direction 1 -4.4896e-011 2.56952e-028   
     length 1.56673   
     axis -5.12785e-016 90 90   XYZ
    dof ry
    limits (-180.0 0.0)
 end
  begin
     id 21 
     name lhand
     direction 1 -4.48934e-011 5.13905e-028   
     length 0.713374   
     axis -3.27915e-016 90 90   XYZ
    dof rx rz
    limits (-90.0 90.0)
           (-45.0 45.0)
  end
  begin
     id 22 
     name lfingers
     direction 1 -4.48973e-011 1.02781e-027   
     length 0.575141   
     axis -6.5583e-016 90 90   XYZ
    dof rx
    limits (0.0 90.0)
  end
  begin
     id 23
     name lthumb
     direction 0.707107 -6.34883e-011 0.707107   
     length 0.82579   
     axis -90 45 2.85299e-015   XYZ
    dof rx rz
    limits (-45.0 45.0)
           (-45.0 45.0)
  end
  begin
     id 24 
     name rclavicle
     direction -0.936895 0.34884 0.0232243   
     length 3.53304  
     axis 0 0 0   XYZ 
    dof ry rz
    limits (-10.0 20.0)
           (-20.0 0.0)
  end
  begin
     id 25 
     name rhumerus
     direction -1 -4.48965e-011 1.05514e-027  
     length 5.4685   
     axis 180 30 90   XYZ
    dof rx ry rz
    limits (-90.0 60.0)
           (-90.0 90.0)
           (-90.0 90.0)
  end
  begin
     id 26 
     name rradius
     direction -1 -4.48964e-011 -1.1079e-027   
     length 3.22411   
     axis 180 30 90   XYZ
    dof rx
    limits (-10.0 170.0)
  end
  begin
     id 27 
     name rwrist
     direction -1 -4.48973e-011 2.56952e-028   
     length 1.61206   
     axis -5.12785e-016 -90 -90   XYZ
    dof ry
    limits (-180.0 0.0)
  end
  begin
     id 28
     name rhand
     direction -1 -4.48957e-011 5.13905e-028   
     length 0.74528   
     axis -3.27915e-016 -90 -90   XYZ
    dof rx rz
    limits (-90.0 90.0)
           (-45.0 45.0)
  end
  begin
     id 29
     name rfingers
     direction -1 -4.4901e-011 1.02781e-027   
     length 0.600864   
     axis -6.5583e-016 -90 -90   XYZ
    dof rx
    limits (0.0 90.0)
  end
  begin
     id 30
     name rthumb
     direction -0.707107 -6.34972e-011 0.707107   
     length 0.862724   
     axis -90 -45 -2.85299e-015   XYZ
    dof rx rz
    limits (-45.0 45.0)
           (-45.0 45.0)
  end
:hierarchy
  begin
    root lhipjoint rhipjoint lowerback
    lhipjoint lfemur
    lfemur ltibia
    ltibia lfoot
    lfoot ltoes
    rhipjoint rfemur
    rfemur rtibia
    rtibia rfoot
    rfoot rtoes
    lowerback upperback
    upperback thorax
    thorax lowerneck lclavicle rclavicle
    lowerneck upperneck
    upperneck head
    lclavicle lhumerus
    lhumerus lradius
    lradius lwrist
    lwrist lhand lthumb
    lhand lfingers
    rclavicle rhumerus
    rhumerus rradius
    rradius rwrist
    rwrist rhand rthumb
    rhand rfingers
  end

#!OML:ASF G:\Work\Work\Patient Classification 1\Liu\Session 1\Liu.ASF
:FULLY-SPECIFIED
:DEGREES
191
root 26.2472 14.832 -23.4474 -184.498 -15.6628 -175.737
lowerback 2.45911 -3.88741 -1.04978
upperback 1.15095 -5.26114 2.04269
thorax 0.0930186 -2.66979 2.7906
lowerneck -18.189 11.1332 2.94886
upperneck 28.3041 15.8948 -6.04582
head 13.3033 5.95826 -0.227391
rclavicle 3.30861e-014 -2.48605e-014
rhumerus -64.3982 15.4447 -90.4982
rradius 101.817
rwrist -11.3598
rhand -23.8472 30.2465
rfingers 7.12502
rthumb 2.62491 0.282914
lclavicle 3.30861e-014 -2.48605e-014
lhumerus -41.2199 -35.8547 103.29
lradius 99.6406
lwrist 16.8771
lhand -21.1582 34.1357
lfingers 7.12502
lthumb 5.22158 64.0513
rfemur -22.5413 -6.26338 10.0019
rtibia 43.4863
rfoot -18.3073 13.6204
rtoes -39.1029
lfemur 3.53105 13.7929 -11.8146
ltibia 85.5708
lfoot -23.4312 13.1006
ltoes -9.62889
192
root 26.2462 14.8547 -23.6628 -184.371 -16.5747 -173.737
lowerback 2.94409 -3.39291 0.42497
upperback 0.829614 -4.58805 2.87125
thorax -0.592224 -2.34019 2.85846
lowerneck -17.0156 10.9071 4.17307
upperneck 27.0924 15.7492 -8.18936
head 12.9093 5.83876 -1.30419
rclavicle 6.93433e-014 -7.30534e-015
rhumerus -62.9968 15.8397 -90.618
rradius 100.272
rwrist -11.1337
rhand -23.5993 29.2449
rfingers 7.12502
rthumb 2.8643 -0.715582
lclavicle 6.93433e-014 -7.30534e-015
lhumerus -41.6364 -34.4588 104.08
lradius 97.2194
lwrist 15.142
lhand -19.8499 38.1546
lfingers 7.12502
lthumb 6.48474 68.0353
rfemur -21.9519 -6.52122 12.4098
rtibia 43.4147
rfoot -19.623 12.3395
rtoes -39.3597
lfemur -1.50067 13.665 -10.7358
ltibia 89.3335
lfoot -23.2322 12.9245
ltoes -8.4654
193
root 26.2287 14.8753 -23.8996 -185.009 -17.7232 -171.156
lowerback 3.53847 -2.94321 2.85925
upperback 0.684823 -3.93744 3.5305
thorax -1.21698 -2.04423 2.20678
lowerneck -14.9656 10.5878 5.80921
upperneck 25.2246 15.3378 -10.449
head 12.099 5.72044 -2.55184
rclavicle 3.7322e-014 -4.39811e-015
rhumerus -62.0123 15.9241 -91.2436
rradius 99.023
rwrist -10.2006
rhand -23.1489 29.2969
rfingers 7.12502
rthumb 3.29929 -0.657362
lclavicle 3.7322e-014 -4.39811e-015
lhumerus -42.1729 -33.5153 104.604
lradius 94.8563
lwrist 13.5368
lhand -19.4283 41.9628
lfingers 7.12502
lthumb 6.8917 71.8306
rfemur -20.3047 -6.97877 15.2922
rtibia 42.7657
rfoot -20.5108 11.0841
rtoes -39.2992
lfemur -5.73487 13.2802 -8.91119
ltibia 92.4592
lfoot -23.083 12.5021
ltoes -9.15678
194
root 26.195 14.889 -24.1599 -185.958 -19.3309 -169.068
lowerback 3.66866 -2.52547 4.95002
upperback 1.06253 -3.37905 3.94951
thorax -0.998895 -1.79437 1.44814
lowerneck -15.6106 10.5028 5.63977
upperneck 25.5345 15.2611 -10.1854
head 12.3018 5.68629 -2.41054
rclavicle 1.60679e-014 -9.04237e-015
rhumerus -60.6982 15.6525 -91.7949
rradius 98.3558
rwrist -9.00199
rhand -22.775 29.9716
rfingers 7.12502
rthumb 3.66041 0.0232931
lclavicle 1.60679e-014 -9.04237e-015
lhumerus -42.0206 -33.1711 104.677
lradius 92.5994
lwrist 12.5464
lhand -20.2869 44.4575
lfingers 7.12502
lthumb 6.06287 74.3507
rfemur -17.5035 -7.99965 17.3831
rtibia 41.2459
rfoot -21.2428 9.95933
rtoes -39.5628
lfemur -9.22375 12.2514 -8.03909
ltibia 94.9487
lfoot -23.6406 11.7595
ltoes -8.79579
195
root 26.1212 14.9086 -24.423 -186.612 -22.0978 -168.191
lowerback 3.56902 -2.36874 6.21194
upperback 1.34697 -3.17415 3.95941
thorax -0.70961 -1.69232 0.737814
lowerneck -19.0236 10.6405 3.26402
upperneck 28.2497 15.6579 -7.46366
head 13.6374 5.71392 -0.796177
rclavicle -2.98165e-014 5.89397e-014
rhumerus -59.7846 15.2257 -92.3892
rradius 98.2937
rwrist -8.2948
rhand -22.2078 30.5046
rfingers 7.12502
rthumb 4.20808 0.566388
lclavicle -2.98165e-014 5.89397e-014
lhumerus -42.3967 -33.3704 105.337
lradius 91.091
lwrist 12.8816
lhand -22.6913 47.0417
lfingers 7.12502
lthumb 3.74117 76.9886
rfemur -14.2767 -10.2549 17.7119
rtibia 39.6163
rfoot -21.788 9.42403
rtoes -39.3881
lfemur -12.6702 9.79212 -9.76557
ltibia 96.4608
lfoot -24.4579 11.8463
ltoes -8.26349
196
root 26.0386 14.9287 -24.6547 -188.409 -25.6775 -168.136
lowerback 5.05978 -2.66463 6.71127
upperback 1.6375 -3.42246 3.64047
thorax -1.29684 -1.8217 0.218668
lowerneck -22.1252 10.552 0.686314
upperneck 30.8205 15.8986 -4.86404
head 14.8816 5.63548 0.829718
rclavicle 9.17779e-014 -4.85283e-014
rhumerus -59.5837 15.2181 -93.4043
rradius 98.3723
rwrist -8.03457
rhand -21.3062 31.0378
rfingers 7.12502
rthumb 5.07872 1.11864
lclavicle 9.17779e-014 -4.85283e-014
lhumerus -43.6245 -32.9457 105.939
lradius 89.8766
lwrist 12.738
lhand -23.4073 48.4065
lfingers 7.12502
lthumb 3.04973 78.3644
rfemur -9.30431 -13.1744 16.4977
rtibia 37.8846
rfoot -22.067 9.32845
rtoes -38.2618
lfemur -14.4877 5.98517 -13.1295
ltibia 97.074
lfoot -24.6897 13.558
ltoes -9.09119
197
root 25.985 14.9567 -24.8739 -189.418 -27.7874 -167.445
lowerback 6.04056 -2.57273 7.41185
upperback 1.55797 -3.1632 3.64696
thorax -1.94879 -1.71402 -0.123953
lowerneck -20.1327 10.5111 2.58942
upperneck 29.5708 15.7114 -7.03995
head 14.3372 5.59873 -0.460862
rclavicle -1.83876e-014 -7.51406e-014
rhumerus -59.4915 15.9719 -94.778
rradius 98.293
rwrist -8.26607
rhand -20.888 31.2617
rfingers 7.12502
rthumb 5.48246 1.35263
lclavicle -1.83876e-014 -7.51406e-014
lhumerus -44.8848 -32.0342 106.057
lradius 88.7934
lwrist 12.7165
lhand -22.9471 49.5457
lfingers 7.12502
lthumb 3.49415 79.4968
rfemur -6.15388 -14.237 16.7173
rtibia 36.3044
rfoot -21.7627 8.54033
rtoes -37.1157
lfemur -17.2391 3.91579 -15.1803
ltibia 97.3917
lfoot -24.2068 14.9066
ltoes -12.0601
198
root 25.951 14.9936 -25.0905 -190.186 -28.471 -165.981
lowerback 6.78396 -1.95488 8.70508
upperback 1.39852 -2.18814 3.9321
thorax -2.50352 -1.27002 -0.588701
lowerneck -19.6277 10.471 3.20246
upperneck 29.2734 15.693 -7.86797
head 14.2563 5.58096 -0.904382
rclavicle -8.04426e-014 9.44227e-015
rhumerus -59.3274 16.7847 -96.0921
rradius 98.3797
rwrist -8.65015
rhand -21.1894 31.4453
rfingers 7.12502
rthumb 5.19143 1.52893
lclavicle -8.04426e-014 9.44227e-015
lhumerus -46.2103 -31.7214 106.369
lradius 88.2415
lwrist 14.1807
lhand -23.506 51.8494
lfingers 7.12502
lthumb 2.95441 81.8087
rfemur -4.24011 -13.7423 18.4986
rtibia 34.8234
rfoot -21.3451 6.81743
rtoes -37.9174
lfemur -20.5779 3.51371 -15.7015
ltibia 97.317
lfoot -23.6061 15.4122
ltoes -19.3112
199
root 25.8852 15.0451 -25.3386 -190.038 -29.4605 -166.43
lowerback 6.89081 -1.25321 8.35476
upperback 1.46615 -1.25245 3.74455
thorax -2.42128 -0.789414 -0.679107
lowerneck -20.4094 10.4075 2.73598
upperneck 29.8743 15.7582 -7.56583
head 14.6165 5.53989 -0.661922
rclavicle -1.48157e-014 -6.75868e-015
rhumerus -58.9045 17.4892 -97.0627
rradius 98.5813
rwrist -8.55136
rhand -21.3316 31.5439
rfingers 7.12502
rthumb 5.05418 1.62422
lclavicle -1.48157e-014 -6.75868e-015
lhumerus -47.5384 -31.7509 106.541
lradius 87.9092
lwrist 15.7482
lhand -23.5864 50.1036
lfingers 7.12502
lthumb 2.87676 80.064
rfemur -2.28871 -14.2464 17.979
rtibia 33.8434
rfoot -21.3313 5.75676
rtoes -39.8192
lfemur -23.0992 2.69279 -18.7625
ltibia 96.1585
lfoot -22.7157 17.1824
ltoes -27.5077
200
root 25.7845 15.1121 -25.6394 -189.276 -30.5193 -168.109
lowerback 6.28501 -0.570069 6.81429
upperback 1.69026 -0.483515 3.3246
thorax -1.79209 -0.355189 -0.344666
lowerneck -21.457 10.2499 1.97371
upperneck 30.6168 15.7574 -7.08399
head 15.0503 5.43963 -0.301093
rclavicle -7.68427e-014 -1.60022e-014
rhumerus -58.7173 18.584 -98.1166
rradius 98.7553
rwrist -8.41651
rhand -21.4689 31.5705
rfingers 7.12502
rthumb 4.92157 1.64769
lclavicle -7.68427e-014 -1.60022e-014
lhumerus -48.9022 -31.5573 106.44
lradius 87.6741
lwrist 16.5881
lhand -23.1484 48.048
lfingers 7.12502
lthumb 3.29981 78.0022
rfemur 0.0162625 -15.2731 15.8043
rtibia 32.8701
rfoot -20.7455 6.35678
rtoes -40.0714
lfemur -24.2325 1.71157 -22.9684
ltibia 93.8355
lfoot -22.1118 18.7118
ltoes -31.8138
201
root 25.7341 15.169 -25.7369 -187.106 -29.4672 -167.049
lowerback 5.79444 0.668909 8.71998
upperback 0.648956 1.3166 3.40946
thorax -2.4542 0.48867 -1.44515
lowerneck -19.0085 10.3539 4.23006
upperneck 28.4395 15.8215 -9.91444
head 14.1185 5.55791 -1.855
rclavicle 1.94343e-014 -2.99171e-014
rhumerus -58.9624 19.7965 -99.5151
rradius 99.0026
rwrist -9.53513
rhand -22.0261 32.3169
rfingers 7.12502
rthumb 4.38361 2.38227
lclavicle 1.94343e-014 -2.99171e-014
lhumerus -50.3054 -31.4141 106.309
lradius 87.4866
lwrist 16.8944
lhand -23.5183 48.9499
lfingers 7.12502
lthumb 2.94253 78.9094
rfemur -1.98239 -13.6073 18.1744
rtibia 31.0967
rfoot -17.6826 5.57954
rtoes -39.9406
lfemur -30.4902 2.75024 -23.6161
ltibia 93.058
lfoot -21.5087 18.3072
ltoes -32.4635
202
root 25.7205 15.2462 -26.0115 -188.172 -29.9577 -165.136
lowerback 6.23777 1.30592 9.49368
upperback 0.613414 2.2327 4.00514
thorax -2.64999 0.903471 -1.32759
lowerneck -21.2218 10.1021 2.13368
upperneck 30.1288 15.8328 -8.15031
head 14.9348 5.38595 -0.743199
rclavicle 3.10073e-014 -2.93207e-014
rhumerus -59.3605 20.5881 -100.918
rradius 99.5932
rwrist -10.4844
rhand -22.2713 32.9699
rfingers 7.12502
rthumb 4.14681 3.03056
lclavicle 3.10073e-014 -2.93207e-014
lhumerus -51.8327 -31.5532 106.2
lradius 87.5002
lwrist 17.2945
lhand -25.0286 51.5191
lfingers 7.12502
lthumb 1.48399 81.4937
rfemur -0.9929 -11.8528 20.6125
rtibia 30.8286
rfoot -15.2019 5.31266
rtoes -26.9316
lfemur -32.5455 2.53817 -23.0187
ltibia 91.1744
lfoot -21.2728 17.018
ltoes -33.3979
203
root 25.8316 15.214 -26.2188 -196.423 -23.6299 -153.837
lowerback 11.9209 2.64974 19.1562
upperback 1.05942 5.43794 7.1621
thorax -4.42239 1.92181 -3.64047
lowerneck -17.5205 10.1058 6.2427
upperneck 26.6611 15.7132 -13.3942
head 13.6392 5.42177 -3.59417
rclavicle 1.00877e-013 -2.55438e-014
rhumerus -59.7512 21.1789 -102.164
rradius 100.317
rwrist -9.60701
rhand -21.8692 32.7578
rfingers 7.12502
rthumb 4.53507 2.82633
lclavicle 1.00877e-013 -2.55438e-014
lhumerus -53.3885 -31.5975 105.809
lradius 87.5621
lwrist 17.4844
lhand -26.1881 52.3156
lfingers 7.12502
lthumb 0.36406 82.2951
rfemur 2.62544 -5.39693 34.2325
rtibia 29.6135
rfoot -14.2329 0.0868217
rtoes -38.3399
lfemur -33.3972 9.37036 -9.16104
ltibia 92.0193
lfoot -21.6752 10.9101
ltoes -32.0086
